{
   "asset": { "version": "2.0" },
   "extensionsUsed": [ "KHR_materials_diffuse_transmission", "KHR_materials_volume", "KHR_materials_volume_scatter" ],
   "accessors": [
      { "bufferView": 0, "byteOffset": 0, "componentType": 5123, "count": 36, "type": "SCALAR", "min": [0], "max": [35] },
      { "bufferView": 1, "byteOffset": 0, "componentType": 5126, "count": 36, "type": "VEC3", "min": [-1.0, -1.0, -1.0], "max": [1.0, 1.0, 1.000001] },
      { "bufferView": 2, "byteOffset": 0, "componentType": 5126, "count": 36, "type": "VEC3", "min": [-1.0, -1.0, -1.0], "max": [1.0, 1.0, 1.0] },
      { "bufferView": 3, "byteOffset": 0, "componentType": 5126, "count": 36, "type": "VEC4", "min": [0.0, 0.0, -1.0, -1.0], "max": [1.0, 0.0, 0.0, 1.0] },
      { "bufferView": 4, "byteOffset": 0, "componentType": 5126, "count": 36, "type": "VEC2", "min": [-1.0, -1.0], "max": [1.0, 1.0] }
   ],
   "bufferViews": [
      { "buffer": 0, "byteLength":  72, "byteOffset":    0, "target": 34963 },
      { "buffer": 0, "byteLength": 432, "byteOffset":   72, "target": 34962 },
      { "buffer": 0, "byteLength": 432, "byteOffset":  504, "target": 34962 },
      { "buffer": 0, "byteLength": 576, "byteOffset":  936, "target": 34962 },
      { "buffer": 0, "byteLength": 288, "byteOffset": 1512, "target": 34962 }
   ],
   "buffers": [ { "byteLength": 1800, "uri": "Cube.bin" } ],
   "images": [ { "uri": "Cube_BaseColor.png" } ],
   "textures": [ { "source": 0 } ],
   "materials": [
      {
         "name": "VolumeScatterDiffuseTransmissionMaterial",
         "pbrMetallicRoughness": {
            "baseColorFactor": [ 1.0, 1.0, 1.0, 1.0 ],
            "metallicFactor": 0.0,
            "roughnessFactor": 0.5
         },
         "extensions": {
            "KHR_materials_diffuse_transmission": {
               "diffuseTransmissionFactor": 1.0
            },
            "KHR_materials_volume": {
               "thicknessFactor": 1.0,
               "attenuationDistance": 1.0,
               "attenuationColor": [ 0.8, 0.8, 0.8 ]
            },
            "KHR_materials_volume_scatter": {
               "multiscatterColorFactor": [ 0.5, 0.7, 0.9 ],
               "multiscatterColorTexture": { "index": 0 }
            }
         }
      }
   ],
   "meshes": [
      {
         "name": "Cube",
         "primitives": [ {
            "attributes": { "NORMAL": 2, "POSITION": 1, "TANGENT": 3, "TEXCOORD_0": 4 },
            "indices": 0, "material": 0, "mode": 4
         } ]
      }
   ],
   "nodes": [ { "mesh": 0, "name": "Cube" } ],
   "scene": 0,
   "scenes": [ { "nodes": [ 0 ] } ]
}
