{
   "accessors" : [
      {
         "bufferView" : 0,
         "byteOffset" : 0,
         "componentType" : 5123,
         "count" : 36,
         "max" : [ 35 ],
         "min" : [ 0 ],
         "type" : "SCALAR"
      },
      {
         "bufferView" : 1,
         "byteOffset" : 0,
         "componentType" : 5126,
         "count" : 36,
         "max" : [ 1.0, 1.0, 1.000001 ],
         "min" : [ -1.0, -1.0, -1.0 ],
         "type" : "VEC3"
      },
      {
         "bufferView" : 2,
         "byteOffset" : 0,
         "componentType" : 5126,
         "count" : 36,
         "max" : [ 1.0, 1.0, 1.0 ],
         "min" : [ -1.0, -1.0, -1.0 ],
         "type" : "VEC3"
      },
      {
         "bufferView" : 3,
         "byteOffset" : 0,
         "componentType" : 5126,
         "count" : 36,
         "max" : [ 1.0, 0.0, 0.0, 1.0 ],
         "min" : [ 0.0, 0.0, -1.0, -1.0 ],
         "type" : "VEC4"
      },
      {
         "bufferView" : 4,
         "byteOffset" : 0,
         "componentType" : 5126,
         "count" : 36,
         "max" : [ 1.0, 1.0 ],
         "min" : [ -1.0, -1.0 ],
         "type" : "VEC2"
      }
   ],
   "asset" : {
      "version" : "2.0"
   },
   "bufferViews" : [
      { "buffer" : 0, "byteLength" : 72,  "byteOffset" : 0,    "target" : 34963 },
      { "buffer" : 0, "byteLength" : 432, "byteOffset" : 72,   "target" : 34962 },
      { "buffer" : 0, "byteLength" : 432, "byteOffset" : 504,  "target" : 34962 },
      { "buffer" : 0, "byteLength" : 576, "byteOffset" : 936,  "target" : 34962 },
      { "buffer" : 0, "byteLength" : 288, "byteOffset" : 1512, "target" : 34962 }
   ],
   "buffers" : [
      { "byteLength" : 1800, "uri" : "Cube.bin" }
   ],
   "extensionsUsed" : [ "KHR_materials_transmission", "KHR_materials_volume" ],
   "materials" : [
      {
         "name" : "TransmissionVolumetricMaterial",
         "pbrMetallicRoughness" : {
            "baseColorFactor" : [ 0.8, 0.3, 0.1, 1.0 ],
            "metallicFactor" : 0.0,
            "roughnessFactor" : 0.5
         },
         "extensions" : {
            "KHR_materials_transmission" : {
               "transmissionFactor" : 0.9
            },
            "KHR_materials_volume" : {
               "thicknessFactor" : 1.0,
               "attenuationDistance" : 2.0,
               "attenuationColor" : [ 1.0, 1.0, 1.0 ]
            }
         }
      }
   ],
   "meshes" : [
      {
         "name" : "Cube",
         "primitives" : [
            {
               "attributes" : {
                  "NORMAL" : 2,
                  "POSITION" : 1,
                  "TANGENT" : 3,
                  "TEXCOORD_0" : 4
               },
               "indices" : 0,
               "material" : 0,
               "mode" : 4
            }
         ]
      }
   ],
   "nodes" : [
      { "mesh" : 0, "name" : "Cube" }
   ],
   "scene" : 0,
   "scenes" : [
      { "nodes" : [ 0 ] }
   ]
}
